<svg width="400" height="400" viewBox="0 0 400 400" fill="none" xmlns="http://www.w3.org/2000/svg">
<path d="M286.205 176V76L199.603 126V226L286.205 176Z" fill="#FF662F"/>
<path d="M113 176L199.603 226V126L113 76V176Z" fill="#FF8F66"/>
<path d="M286.205 76L199.603 26L113 76L199.603 126L286.205 76Z" fill="#FE7C4D"/>
<path d="M201.205 326V226L114.603 276V376L201.205 326Z" fill="#FF662F"/>
<path d="M28 326L114.603 376V276L28 226V326Z" fill="#FF8F66"/>
<path d="M201.205 226L114.603 176L28 226L114.603 276L201.205 226Z" fill="#FE7C4D"/>
<path d="M372.205 326V226L285.603 276V376L372.205 326Z" fill="#FF662F"/>
<path d="M199 326L285.603 376V276L199 226V326Z" fill="#FF8F66"/>
<path d="M372.205 226L285.603 176L199 226L285.603 276L372.205 226Z" fill="#FE7C4D"/>
<path d="M167 44.8853L253.5 94.8853L237.5 104L152 53.3853L167 44.8853Z" fill="#FBAD91"/>
<path d="M237.5 104L237.5 123.909L253.5 115L253.5 94.8882L237.5 104Z" fill="#FFB093"/>
<path d="M152 254.5L152.154 274.321L168.154 265.412L168 245L152 254.5Z" fill="#FFB093"/>
<path d="M323.5 254L323.654 273.821L339.654 264.912L340 244.5L323.5 254Z" fill="#FFB093"/>
<path d="M253.994 194.179L340 244.5L323.5 254L238.5 203L253.994 194.179Z" fill="#FBAD91"/>
<path d="M81.5002 194.5L168 245L152 254.5L67.0002 203L81.5002 194.5Z" fill="#FBAD91"/>
</svg>
